<svg width="14" height="14" viewBox="0 0 14 14" fill="none" xmlns="http://www.w3.org/2000/svg">
<path d="M10.9084 5.65832L7.40835 9.15832C7.29169 9.27499 7.17502 9.33332 7.00002 9.33332C6.82502 9.33332 6.70835 9.27499 6.59169 9.15832L3.09169 5.65832C2.85835 5.42499 2.85835 5.07499 3.09169 4.84166C3.32502 4.60832 3.67502 4.60832 3.90835 4.84166L7.00002 7.93332L10.0917 4.84166C10.325 4.60832 10.675 4.60832 10.9084 4.84166C11.1417 5.07499 11.1417 5.42499 10.9084 5.65832Z" fill="black"/>
<mask id="mask0" mask-type="alpha" maskUnits="userSpaceOnUse" x="2" y="4" width="10" height="6">
<path d="M10.9084 5.65832L7.40835 9.15832C7.29169 9.27499 7.17502 9.33332 7.00002 9.33332C6.82502 9.33332 6.70835 9.27499 6.59169 9.15832L3.09169 5.65832C2.85835 5.42499 2.85835 5.07499 3.09169 4.84166C3.32502 4.60832 3.67502 4.60832 3.90835 4.84166L7.00002 7.93332L10.0917 4.84166C10.325 4.60832 10.675 4.60832 10.9084 4.84166C11.1417 5.07499 11.1417 5.42499 10.9084 5.65832Z" fill="white"/>
</mask>
<g mask="url(#mask0)">
<path fill-rule="evenodd" clip-rule="evenodd" d="M0 0H14V14H0V0Z" fill="black"/>
</g>
</svg>
